<?xml version="1.0" encoding="utf-8"?>
<!-- Generator: Adobe Illustrator 16.0.0, SVG Export Plug-In . SVG Version: 6.00 Build 0)  -->
<!DOCTYPE svg PUBLIC "-//W3C//DTD SVG 1.1//EN" "http://www.w3.org/Graphics/SVG/1.1/DTD/svg11.dtd">
<svg version="1.1" id="Layer_1" xmlns="http://www.w3.org/2000/svg" xmlns:xlink="http://www.w3.org/1999/xlink" x="0px" y="0px"
	 width="72px" height="52px" viewBox="0 0 72 52" enable-background="new 0 0 72 52" xml:space="preserve">
<g>
	<path d="M70.844,25.619h-4.867c-0.441,0-1.176-0.027-1.176-0.469v-4.91c0-0.442,0.02-1.024-0.422-1.024h-4.887
		c-0.441,0-1.094-0.136-1.094-0.578v-4.883c0-0.441-0.063-0.937-0.504-0.937H53.02c-0.441,0-1.02-0.223-1.02-0.664v-4.91
		c0-0.442-0.246-0.793-0.691-0.789c-1.594,0.011-3.23,0.011-4.887,0.011c-0.441,0-0.82,0.36-0.82,0.801v4.863
		c0,0.446-0.203,0.688-0.648,0.688H27.008c-0.442,0-0.61-0.242-0.61-0.684V7.264c0-0.441-0.453-0.8-0.894-0.8
		c-1.641,0-3.18,0-4.762-0.012C20.301,6.448,20,6.803,20,7.245v4.953c0,0.441-0.57,0.621-1.012,0.621h-4.914
		c-0.441,0-0.472,0.535-0.472,0.977v4.89c0,0.442-0.684,0.531-1.125,0.531H7.578c-0.441,0-1.18,0.629-1.18,1.071v4.894
		c0,0.442,0.024,0.438-0.421,0.438H1.156C0.715,25.619,0,26.342,0,26.783v17.742c0,0.441,0.715,1.094,1.156,1.094h4.821
		c0.441,0,0.421-0.652,0.421-1.094V33.232c0-0.44,0.735-0.414,1.176-0.414h4.949c0.442,0,1.079-0.026,1.079,0.414v11.363
		c0,0.441,0.218,0.801,0.66,0.801c1.64,0,3.297,0,4.879,0.012C19.582,45.412,20,45.061,20,44.619V39.74
		c0-0.444,0.098-0.523,0.543-0.523h30.918c0.441,0,0.801,0.219,0.801,0.661c0,1.644,0,3.3-0.016,4.897
		c-0.004,0.441,0.352,0.844,0.793,0.844h4.871c0.441,0,0.488-0.586,0.488-1.027V33.244c0-0.441,0.672-0.426,1.113-0.426h4.973
		c0.441,0,1.117-0.016,1.117,0.426v11.281c0,0.441,0.039,1.094,0.484,1.094h4.758c0.441,0,1.156-0.652,1.156-1.094V26.749
		C72,26.307,71.285,25.619,70.844,25.619L70.844,25.619z M26.398,25.111c0,0.441-0.5,0.508-0.941,0.508H20.57
		c-0.441,0-0.57-0.063-0.57-0.504v-4.879c0-0.445,0.129-1.02,0.57-1.02h4.887c0.441,0,0.941,0.575,0.941,1.02V25.111z M52,25.127
		c0,0.441-0.133,0.492-0.574,0.492h-4.879c-0.441,0-0.945-0.051-0.945-0.496v-4.878c0-0.442,0.504-1.028,0.945-1.028h4.879
		c0.441,0,0.574,0.586,0.574,1.028V25.127z M52,25.127"/>
	<path d="M31.941,45.451c-1.207,0-2.418,0.004-3.605,0c-2.586-0.008-5.191-0.02-7.781-0.03c-0.442,0-0.801,0.354-0.797,0.8
		c0.012,1.598,0.008,3.301,0.008,4.903c0,0.44,0.355,0.894,0.796,0.894h11.317c0.441,0,0.922-0.547,0.922-0.992v-4.772
		C32.801,45.811,32.383,45.451,31.941,45.451L31.941,45.451z M31.941,45.451"/>
	<path d="M51.742,45.436c-0.121,0.008-0.191,0.098-0.316,0.098c-3.809,0.004-7.559,0.086-11.367,0.086h-0.363
		c-0.199,0-0.496,0.191-0.496,0.634v4.784c0,0.441,0.492,0.98,0.938,0.98h11.305c0.441,0,0.559-0.539,0.559-0.98v-4.844
		C52,45.753,51.953,45.421,51.742,45.436L51.742,45.436z M51.742,45.436"/>
	<path d="M14.145,6.417h4.843c0.442,0,0.797-0.344,0.793-0.786c-0.011-1.601-0.015-3.21-0.015-4.812c0-0.441-0.36-0.801-0.801-0.801
		h-4.82c-0.442,0-0.543,0.371-0.543,0.817v4.808C13.602,6.084,13.703,6.417,14.145,6.417L14.145,6.417z M14.145,6.417"/>
	<path d="M52.922,6.459c1.598-0.012,3.145-0.012,4.742-0.012c0.445,0,0.734-0.359,0.734-0.801V0.823
		c0-0.442-0.105-0.805-0.547-0.805h-4.809C52.602,0.018,52,0.385,52,0.827V5.67C52,6.111,52.48,6.463,52.922,6.459L52.922,6.459z
		 M52.922,6.459"/>
</g>
</svg>
